<svg width="197" height="365" viewBox="0 0 197 365" fill="none" xmlns="http://www.w3.org/2000/svg">
<path fill-rule="evenodd" clip-rule="evenodd" d="M192.428 256.794C195.064 259.427 196.545 263 196.545 266.726C196.545 270.451 195.064 274.024 192.428 276.657L108.203 360.883C105.57 363.519 101.997 365 98.2711 365C94.5454 365 90.9725 363.519 88.3395 360.883L4.11381 276.657C-1.37127 271.172 -1.37127 262.279 4.11381 256.794C9.59888 251.309 18.4919 251.309 23.977 256.794L98.2711 331.106L172.565 256.794C175.198 254.158 178.771 252.677 182.497 252.677C186.222 252.677 189.795 254.158 192.428 256.794ZM23.977 108.206L98.2711 33.8943L172.565 108.206C178.05 113.691 186.943 113.691 192.428 108.206C197.913 102.721 197.913 93.8278 192.428 88.3427L108.203 4.11705C105.57 1.48111 101.997 3.82495e-06 98.2711 3.82495e-06C94.5454 3.82495e-06 90.9725 1.48111 88.3395 4.11705L4.11381 88.3427C-1.37127 93.8278 -1.37127 102.721 4.11381 108.206C9.59888 113.691 18.4919 113.691 23.977 108.206Z" fill="#637887"/>
</svg>
