<svg width="14" height="14" viewBox="0 0 14 14" fill="none" xmlns="http://www.w3.org/2000/svg">
<path fill-rule="evenodd" clip-rule="evenodd" d="M11.4544 14C10.496 14 9.66133 12.5435 9.22709 10.3915C8.79288 12.5435 7.9582 14 6.99983 14C6.04146 14 5.20678 12.5435 4.77257 10.3915C4.33832 12.5435 3.50364 14 2.54527 14C1.13947 14 -0.000170857 10.866 -0.000170857 7C-0.000170857 3.134 1.13947 -6.25849e-07 2.54527 -6.25849e-07C3.50364 -6.25849e-07 4.33832 1.4565 4.77257 3.6085C5.20678 1.4565 6.04146 -6.25849e-07 6.99983 -6.25849e-07C7.9582 -6.25849e-07 8.79288 1.4565 9.22709 3.6085C9.66133 1.4565 10.496 -6.25849e-07 11.4544 -6.25849e-07C12.8602 -6.25849e-07 13.9998 3.134 13.9998 7C13.9998 10.866 12.8602 14 11.4544 14Z" fill="#121417"/>
</svg>
