<svg width="17" height="17" viewBox="0 0 17 17" fill="none" xmlns="http://www.w3.org/2000/svg">
<path fill-rule="evenodd" clip-rule="evenodd" d="M8.5 0C3.80558 0 0 3.80558 0 8.5C0 13.1944 3.80558 17 8.5 17C13.1944 17 17 13.1944 17 8.5C16.995 3.80763 13.1924 0.00495528 8.5 0ZM15.6923 8.5C15.693 9.42272 15.5154 10.3369 15.1692 11.1922L11.5159 8.94543C11.3605 8.84958 11.1868 8.78748 11.0059 8.76317L9.14077 8.51144C8.61532 8.44293 8.09999 8.69608 7.83308 9.15385H7.12038L6.80981 8.51144C6.63581 8.14894 6.30389 7.88733 5.91077 7.80284L5.25692 7.66144L5.89606 6.53846H7.26178C7.48277 6.53803 7.70008 6.4818 7.89356 6.375L8.89476 5.8225C8.98272 5.77347 9.06496 5.71481 9.13995 5.6476L11.3393 3.65827C11.7936 3.2512 11.9043 2.58334 11.6058 2.05144L11.5763 1.99832C14.0883 3.18939 15.6903 5.71998 15.6923 8.5ZM9.7513 1.41721L10.4615 2.68894L8.26216 4.67827L7.26178 5.23077H5.89606C5.42818 5.23008 4.99558 5.47942 4.76163 5.88462L4.04812 7.12938L3.21856 4.91938L4.11269 2.805C5.71302 1.56848 7.76053 1.06402 9.75211 1.41558L9.7513 1.41721ZM1.30769 8.5C1.3066 7.43098 1.54511 6.3753 2.00567 5.41058L2.9325 7.88457C3.08945 8.3008 3.44723 8.60871 3.88221 8.70187L5.6337 9.07865L5.9451 9.72596C6.16555 10.1751 6.62173 10.4602 7.12202 10.4615H7.24298L6.65207 11.788C6.43926 12.2654 6.53118 12.8237 6.88582 13.2077L6.89726 13.2191L8.5 14.8701L8.34144 15.6874C4.43525 15.5965 1.31417 12.4072 1.30769 8.5ZM9.69164 15.5926L9.78399 15.1177C9.86096 14.7087 9.7397 14.2873 9.45707 13.9817C9.45305 13.9781 9.44923 13.9743 9.44562 13.9702L7.84615 12.3201L8.96587 9.80769L10.831 10.0594L14.5677 12.3577C13.4729 14.077 11.7013 15.2523 9.69164 15.5926Z" fill="#121417"/>
</svg>
